<svg width="778" height="199" viewBox="0 0 778 199" fill="none" xmlns="http://www.w3.org/2000/svg">
<path d="M14.0909 155V38.6364H28.1818V142.5H82.2727V155H14.0909ZM157.273 119.318V67.7273H170.682V155H157.273V140.227H156.364C154.318 144.659 151.136 148.428 146.818 151.534C142.5 154.602 137.045 156.136 130.455 156.136C125 156.136 120.152 154.943 115.909 152.557C111.667 150.133 108.333 146.496 105.909 141.648C103.485 136.761 102.273 130.606 102.273 123.182V67.7273H115.682V122.273C115.682 128.636 117.462 133.712 121.023 137.5C124.621 141.288 129.205 143.182 134.773 143.182C138.106 143.182 141.496 142.33 144.943 140.625C148.428 138.92 151.345 136.307 153.693 132.784C156.08 129.261 157.273 124.773 157.273 119.318ZM195.241 155V67.7273H208.196V81.3636H209.332C211.151 76.7045 214.086 73.0871 218.139 70.5114C222.192 67.8977 227.06 66.5909 232.741 66.5909C238.499 66.5909 243.291 67.8977 247.116 70.5114C250.98 73.0871 253.991 76.7045 256.151 81.3636H257.06C259.295 76.8561 262.647 73.2765 267.116 70.625C271.586 67.9356 276.946 66.5909 283.196 66.5909C290.999 66.5909 297.382 69.0341 302.344 73.9205C307.306 78.7689 309.787 86.3258 309.787 96.5909V155H296.378V96.5909C296.378 90.1515 294.616 85.5492 291.094 82.7841C287.571 80.0189 283.423 78.6364 278.651 78.6364C272.514 78.6364 267.76 80.4924 264.389 84.2045C261.018 87.8788 259.332 92.5379 259.332 98.1818V155H245.696V95.2273C245.696 90.2652 244.086 86.2689 240.866 83.2386C237.647 80.1705 233.499 78.6364 228.423 78.6364C224.938 78.6364 221.681 79.5644 218.651 81.4205C215.658 83.2765 213.234 85.8523 211.378 89.1477C209.56 92.4053 208.651 96.1742 208.651 100.455V155H195.241ZM370.895 156.818C362.486 156.818 355.232 154.962 349.134 151.25C343.073 147.5 338.395 142.273 335.099 135.568C331.842 128.826 330.213 120.985 330.213 112.045C330.213 103.106 331.842 95.2273 335.099 88.4091C338.395 81.553 342.978 76.2121 348.849 72.3864C354.759 68.5227 361.652 66.5909 369.531 66.5909C374.077 66.5909 378.565 67.3485 382.997 68.8636C387.429 70.3788 391.463 72.8409 395.099 76.25C398.736 79.6212 401.634 84.0909 403.793 89.6591C405.952 95.2273 407.031 102.083 407.031 110.227V115.909H339.759V104.318H393.395C393.395 99.3939 392.41 95 390.44 91.1364C388.509 87.2727 385.743 84.2235 382.145 81.9886C378.584 79.7538 374.38 78.6364 369.531 78.6364C364.19 78.6364 359.569 79.9621 355.668 82.6136C351.804 85.2273 348.83 88.6364 346.747 92.8409C344.664 97.0455 343.622 101.553 343.622 106.364V114.091C343.622 120.682 344.759 126.269 347.031 130.852C349.342 135.398 352.543 138.864 356.634 141.25C360.724 143.598 365.478 144.773 370.895 144.773C374.418 144.773 377.599 144.28 380.44 143.295C383.319 142.273 385.8 140.758 387.884 138.75C389.967 136.705 391.577 134.167 392.713 131.136L405.668 134.773C404.304 139.167 402.012 143.03 398.793 146.364C395.573 149.659 391.596 152.235 386.861 154.091C382.126 155.909 376.804 156.818 370.895 156.818ZM440.838 102.5V155H427.429V67.7273H440.384V81.3636H441.52C443.565 76.9318 446.671 73.3712 450.838 70.6818C455.005 67.9545 460.384 66.5909 466.974 66.5909C472.884 66.5909 478.054 67.803 482.486 70.2273C486.918 72.6136 490.365 76.25 492.827 81.1364C495.289 85.9848 496.52 92.1212 496.52 99.5455V155H483.111V100.455C483.111 93.5985 481.33 88.2576 477.77 84.4318C474.209 80.5682 469.323 78.6364 463.111 78.6364C458.83 78.6364 455.005 79.5644 451.634 81.4205C448.3 83.2765 445.668 85.9848 443.736 89.5455C441.804 93.1061 440.838 97.4242 440.838 102.5Z" fill="url(#paint0_linear_13_45)"/>
<rect x="517" y="67" width="21.7434" height="21.7434" fill="#4401F5"/>
<rect x="603.974" y="67" width="21.7434" height="21.7434" fill="#4401F5"/>
<rect x="625.717" y="88.7434" width="21.7434" height="21.7434" fill="#6601DE"/>
<rect x="625.717" y="110.487" width="21.7434" height="21.7434" fill="#8801C8"/>
<rect x="647.461" y="132.23" width="21.7434" height="21.7434" fill="#A801B4"/>
<rect x="647.461" y="153.974" width="21.7434" height="21.7434" fill="#CB019C"/>
<rect x="625.717" y="175.717" width="21.7434" height="21.7434" fill="#EE0186"/>
<rect x="669.204" y="110.487" width="21.7434" height="21.7434" fill="#8801C8"/>
<rect x="669.204" y="88.7434" width="21.7434" height="21.7434" fill="#6601DE"/>
<rect x="669.204" y="67" width="21.7434" height="21.7434" fill="#4401F5"/>
<rect x="712.691" y="67" width="21.7434" height="21.7434" fill="#4401F5"/>
<rect x="734.434" y="88.7434" width="21.7434" height="21.7434" fill="#6601DE"/>
<rect x="712.691" y="132.23" width="21.7434" height="21.7434" fill="#A801B4"/>
<rect x="756.178" y="132.23" width="21.7434" height="21.7434" fill="#A801B4"/>
<rect x="734.434" y="110.487" width="21.7434" height="21.7434" fill="#8801C8"/>
<rect x="756.178" y="67" width="21.7434" height="21.7434" fill="#4401F5"/>
<rect x="538.743" y="67" width="21.7434" height="21.7434" fill="#4401F5"/>
<rect x="560.487" y="67" width="21.7434" height="21.7434" fill="#4401F5"/>
<rect x="582.23" y="88.7434" width="21.7434" height="21.7434" fill="#6601DE"/>
<rect x="582.23" y="110.487" width="21.7434" height="21.7434" fill="#8801C8"/>
<rect x="582.23" y="132.23" width="21.7434" height="21.7434" fill="#A801B4"/>
<rect x="560.487" y="132.23" width="21.7434" height="21.7434" fill="#A801B4"/>
<rect x="538.743" y="132.23" width="21.7434" height="21.7434" fill="#A801B4"/>
<rect x="517" y="155.009" width="21.7434" height="21.7434" fill="#CB019C"/>
<rect x="517" y="88.7434" width="21.7434" height="21.7434" fill="#6601DE"/>
<rect x="517" y="110.487" width="21.7434" height="22.7788" fill="#8801C8"/>
<rect x="517" y="133.266" width="21.7434" height="21.7434" fill="#A801B4"/>
<rect x="517" y="176.753" width="21.7434" height="21.7434" fill="#EE0186"/>
<defs>
<linearGradient id="paint0_linear_13_45" x1="254.5" y1="0" x2="254.5" y2="194" gradientUnits="userSpaceOnUse">
<stop stop-color="#FF6B00"/>
<stop offset="1" stop-color="#FFE600"/>
</linearGradient>
</defs>
</svg>
